<svg xmlns="http://www.w3.org/2000/svg" width="390" height="844" viewBox="0 0 390 844" role="img" aria-labelledby="title desc">
  <title id="title">Tela inicial do MetaQuest</title>
  <desc id="desc">Dashboard mobile com nível, streak, categorias e metas do dia.</desc>
  <defs>
    <linearGradient id="bg" x1="0" y1="0" x2="0" y2="1">
      <stop offset="0" stop-color="#f8fafc"/>
      <stop offset="1" stop-color="#eef2ff"/>
    </linearGradient>
    <linearGradient id="brand" x1="0" y1="0" x2="1" y2="1">
      <stop offset="0" stop-color="#4f46e5"/>
      <stop offset="1" stop-color="#7c3aed"/>
    </linearGradient>
  </defs>
  <rect width="390" height="844" rx="34" fill="url(#bg)"/>
  <g font-family="Inter, Segoe UI, Arial, sans-serif">
    <rect x="16" y="24" width="358" height="154" rx="24" fill="url(#brand)"/>
    <text x="38" y="65" font-size="14" font-weight="700" fill="#c7d2fe">Nivel 4</text>
    <text x="38" y="101" font-size="28" font-weight="850" fill="#fff">Carol</text>
    <text x="38" y="129" font-size="14" fill="#e0e7ff">680 XP acumulados</text>
    <rect x="38" y="146" width="292" height="10" rx="5" fill="#4338ca" opacity=".65"/>
    <rect x="38" y="146" width="198" height="10" rx="5" fill="#fff"/>
    <circle cx="322" cy="74" r="31" fill="#fff" opacity=".16"/>
    <text x="322" y="84" text-anchor="middle" font-size="28" font-weight="900" fill="#fff">4</text>

    <rect x="16" y="194" width="358" height="94" rx="22" fill="#fff" stroke="#e2e8f0"/>
    <text x="38" y="233" font-size="18" font-weight="850" fill="#0f172a">Sequencia de 7 dias</text>
    <text x="38" y="260" font-size="14" fill="#64748b">1 de 3 metas diarias feitas hoje</text>
    <circle cx="321" cy="241" r="25" fill="#fef3c7"/>
    <text x="321" y="250" text-anchor="middle" font-size="26">🔥</text>

    <text x="16" y="331" font-size="12" font-weight="850" fill="#64748b">POR CATEGORIA</text>
    <rect x="16" y="345" width="171" height="78" rx="18" fill="#eff6ff" stroke="#bfdbfe"/>
    <text x="34" y="378" font-size="15" font-weight="800" fill="#1d4ed8">Profissional</text>
    <text x="34" y="403" font-size="13" fill="#2563eb">1/1 concluida</text>
    <rect x="203" y="345" width="171" height="78" rx="18" fill="#eef2ff" stroke="#c7d2fe"/>
    <text x="221" y="378" font-size="15" font-weight="800" fill="#4338ca">Estudos</text>
    <text x="221" y="403" font-size="13" fill="#4f46e5">0/1 concluida</text>
    <rect x="16" y="435" width="171" height="78" rx="18" fill="#ecfdf5" stroke="#a7f3d0"/>
    <text x="34" y="468" font-size="15" font-weight="800" fill="#047857">Saude</text>
    <text x="34" y="493" font-size="13" fill="#059669">0/1 concluida</text>
    <rect x="203" y="435" width="171" height="78" rx="18" fill="#fff1f2" stroke="#fecdd3"/>
    <text x="221" y="468" font-size="15" font-weight="800" fill="#be123c">Projetos</text>
    <text x="221" y="493" font-size="13" fill="#e11d48">0/1 concluida</text>

    <text x="16" y="556" font-size="12" font-weight="850" fill="#64748b">METAS DE HOJE</text>
    <text x="354" y="556" text-anchor="end" font-size="14" font-weight="800" fill="#4f46e5">+ Nova</text>
    <rect x="16" y="570" width="358" height="70" rx="18" fill="#fff" stroke="#e2e8f0"/>
    <circle cx="46" cy="605" r="14" fill="#dcfce7"/>
    <path d="M39 605l5 5 10-13" fill="none" stroke="#16a34a" stroke-width="3" stroke-linecap="round" stroke-linejoin="round"/>
    <text x="72" y="599" font-size="15" font-weight="800" fill="#0f172a">Planejar o dia</text>
    <text x="72" y="622" font-size="12" fill="#64748b">+10 XP • Profissional</text>
    <rect x="16" y="652" width="358" height="76" rx="18" fill="#fff" stroke="#e2e8f0"/>
    <circle cx="46" cy="690" r="14" fill="#eef2ff" stroke="#c7d2fe"/>
    <text x="72" y="684" font-size="15" font-weight="800" fill="#0f172a">Estudar React</text>
    <text x="72" y="707" font-size="12" fill="#64748b">60% • +25 XP</text>
    <rect x="238" y="694" width="86" height="8" rx="4" fill="#e2e8f0"/>
    <rect x="238" y="694" width="52" height="8" rx="4" fill="#4f46e5"/>

    <rect x="0" y="764" width="390" height="80" fill="#fff" stroke="#e2e8f0"/>
    <text x="54" y="812" text-anchor="middle" font-size="12" font-weight="800" fill="#4f46e5">Inicio</text>
    <text x="142" y="812" text-anchor="middle" font-size="12" fill="#64748b">Metas</text>
    <text x="247" y="812" text-anchor="middle" font-size="12" fill="#64748b">Conquistas</text>
    <text x="337" y="812" text-anchor="middle" font-size="12" fill="#64748b">Perfil</text>
  </g>
</svg>
