<svg xmlns="http://www.w3.org/2000/svg" width="390" height="844" viewBox="0 0 390 844" role="img" aria-labelledby="title desc">
  <title id="title">Tela de perfil do MetaQuest</title>
  <desc id="desc">Tela mobile de perfil com dados do usuário, estatísticas e top categorias.</desc>
  <defs>
    <linearGradient id="bg" x1="0" y1="0" x2="0" y2="1">
      <stop offset="0" stop-color="#f8fafc"/>
      <stop offset="1" stop-color="#eef2ff"/>
    </linearGradient>
    <linearGradient id="avatar" x1="0" y1="0" x2="1" y2="1">
      <stop offset="0" stop-color="#4f46e5"/>
      <stop offset="1" stop-color="#06b6d4"/>
    </linearGradient>
  </defs>
  <rect width="390" height="844" rx="34" fill="url(#bg)"/>
  <g font-family="Inter, Segoe UI, Arial, sans-serif">
    <text x="16" y="58" font-size="25" font-weight="900" fill="#0f172a">Perfil</text>
    <rect x="16" y="82" width="358" height="236" rx="24" fill="#fff" stroke="#e2e8f0"/>
    <circle cx="72" cy="143" r="38" fill="url(#avatar)"/>
    <text x="72" y="157" text-anchor="middle" font-size="30" font-weight="900" fill="#fff">C</text>
    <text x="126" y="133" font-size="22" font-weight="900" fill="#0f172a">Carol</text>
    <text x="126" y="158" font-size="13" fill="#64748b">carol@metaquest.dev</text>
    <rect x="126" y="177" width="78" height="28" rx="14" fill="#eef2ff"/>
    <text x="165" y="196" text-anchor="middle" font-size="12" font-weight="850" fill="#4f46e5">Nivel 4</text>
    <line x1="34" y1="225" x2="356" y2="225" stroke="#e2e8f0"/>
    <text x="72" y="263" text-anchor="middle" font-size="25" font-weight="900" fill="#0f172a">680</text>
    <text x="72" y="286" text-anchor="middle" font-size="11" fill="#64748b">XP</text>
    <text x="195" y="263" text-anchor="middle" font-size="25" font-weight="900" fill="#0f172a">7</text>
    <text x="195" y="286" text-anchor="middle" font-size="11" fill="#64748b">Streak</text>
    <text x="318" y="263" text-anchor="middle" font-size="25" font-weight="900" fill="#0f172a">5</text>
    <text x="318" y="286" text-anchor="middle" font-size="11" fill="#64748b">Metas</text>

    <text x="16" y="361" font-size="12" font-weight="850" fill="#64748b">TOP CATEGORIAS</text>
    <rect x="16" y="376" width="358" height="62" rx="18" fill="#fff" stroke="#e2e8f0"/>
    <circle cx="48" cy="407" r="15" fill="#dbeafe"/>
    <text x="80" y="413" font-size="15" font-weight="800" fill="#334155">Profissional</text>
    <text x="338" y="413" text-anchor="end" font-size="13" font-weight="850" fill="#4f46e5">5 concluidas</text>
    <rect x="16" y="450" width="358" height="62" rx="18" fill="#fff" stroke="#e2e8f0"/>
    <circle cx="48" cy="481" r="15" fill="#e0e7ff"/>
    <text x="80" y="487" font-size="15" font-weight="800" fill="#334155">Estudos</text>
    <text x="338" y="487" text-anchor="end" font-size="13" font-weight="850" fill="#4f46e5">4 concluidas</text>
    <rect x="16" y="524" width="358" height="62" rx="18" fill="#fff" stroke="#e2e8f0"/>
    <circle cx="48" cy="555" r="15" fill="#fce7f3"/>
    <text x="80" y="561" font-size="15" font-weight="800" fill="#334155">Pessoal</text>
    <text x="338" y="561" text-anchor="end" font-size="13" font-weight="850" fill="#4f46e5">3 concluidas</text>

    <rect x="16" y="626" width="358" height="54" rx="16" fill="#fff" stroke="#e2e8f0"/>
    <text x="195" y="660" text-anchor="middle" font-size="15" font-weight="850" fill="#ef4444">Sair da conta</text>

    <rect x="0" y="764" width="390" height="80" fill="#fff" stroke="#e2e8f0"/>
    <text x="54" y="812" text-anchor="middle" font-size="12" fill="#64748b">Inicio</text>
    <text x="142" y="812" text-anchor="middle" font-size="12" fill="#64748b">Metas</text>
    <text x="247" y="812" text-anchor="middle" font-size="12" fill="#64748b">Conquistas</text>
    <text x="337" y="812" text-anchor="middle" font-size="12" font-weight="800" fill="#4f46e5">Perfil</text>
  </g>
</svg>
